<svg width="84" height="94" viewBox="0 0 84 94" fill="none" xmlns="http://www.w3.org/2000/svg">
<g filter="url(#filter0_d_83_124)">
<rect width="52" height="50" transform="translate(16 24)" fill="#6A15AF"/>
</g>
<g opacity="0.2">
<path d="M4.23939 36.5845C1.89806 32.8375 3.03751 27.9021 6.78442 25.5607L44.0985 2.24427C47.8455 -0.0970562 52.7809 1.04239 55.1223 4.78931L78.4387 42.1034C80.7801 45.8503 79.6406 50.7858 75.8937 53.1272L38.5796 76.4436C34.8327 78.7849 29.8972 77.6455 27.5558 73.8986L4.23939 36.5845Z" fill="#6A15AF"/>
</g>
<g opacity="0.4">
<path d="M6.20516 28.23C4.98732 23.9829 7.44303 19.5526 11.6902 18.3348L53.9857 6.20675C58.2328 4.9889 62.663 7.44462 63.8809 11.6917L76.0089 53.9873C77.2268 58.2344 74.771 62.6646 70.5239 63.8824L28.2284 76.0105C23.9813 77.2283 19.551 74.7726 18.3332 70.5255L6.20516 28.23Z" fill="#6A15AF"/>
</g>
<path d="M10.558 28.1606C10.2498 23.7531 13.573 19.9303 17.9805 19.6221L61.8733 16.5528C66.2808 16.2446 70.1037 19.5677 70.4119 23.9752L73.4811 67.868C73.7893 72.2756 70.4662 76.0984 66.0587 76.4066L22.1659 79.4759C17.7584 79.7841 13.9355 76.461 13.6273 72.0534L10.558 28.1606Z" fill="url(#paint0_linear_83_124)"/>
<g clip-path="url(#clip0_83_124)">
<g filter="url(#filter1_d_83_124)">
<path d="M39.2493 58.6353L22.9299 44.4491L18.0966 49.9697L39.9731 68.9867L80.7966 22.0246L75.2786 17.2278L39.2493 58.6353Z" fill="url(#paint1_linear_83_124)"/>
</g>
</g>
<defs>
<filter id="filter0_d_83_124" x="0" y="12" width="84" height="82" filterUnits="userSpaceOnUse" color-interpolation-filters="sRGB">
<feFlood flood-opacity="0" result="BackgroundImageFix"/>
<feColorMatrix in="SourceAlpha" type="matrix" values="0 0 0 0 0 0 0 0 0 0 0 0 0 0 0 0 0 0 127 0" result="hardAlpha"/>
<feOffset dy="4"/>
<feGaussianBlur stdDeviation="8"/>
<feComposite in2="hardAlpha" operator="out"/>
<feColorMatrix type="matrix" values="0 0 0 0 0 0 0 0 0 0 0 0 0 0 0 0 0 0 0.35 0"/>
<feBlend mode="normal" in2="BackgroundImageFix" result="effect1_dropShadow_83_124"/>
<feBlend mode="normal" in="SourceGraphic" in2="effect1_dropShadow_83_124" result="shape"/>
</filter>
<filter id="filter1_d_83_124" x="15.0966" y="14.2278" width="68.7001" height="57.759" filterUnits="userSpaceOnUse" color-interpolation-filters="sRGB">
<feFlood flood-opacity="0" result="BackgroundImageFix"/>
<feColorMatrix in="SourceAlpha" type="matrix" values="0 0 0 0 0 0 0 0 0 0 0 0 0 0 0 0 0 0 127 0" result="hardAlpha"/>
<feOffset/>
<feGaussianBlur stdDeviation="1.5"/>
<feComposite in2="hardAlpha" operator="out"/>
<feColorMatrix type="matrix" values="0 0 0 0 1 0 0 0 0 1 0 0 0 0 1 0 0 0 0.4 0"/>
<feBlend mode="normal" in2="BackgroundImageFix" result="effect1_dropShadow_83_124"/>
<feBlend mode="normal" in="SourceGraphic" in2="effect1_dropShadow_83_124" result="shape"/>
</filter>
<linearGradient id="paint0_linear_83_124" x1="72.5124" y1="16.533" x2="56.8958" y2="89.0746" gradientUnits="userSpaceOnUse">
<stop stop-color="#6A15AF"/>
<stop offset="1" stop-color="#6A15AF"/>
</linearGradient>
<linearGradient id="paint1_linear_83_124" x1="48.2662" y1="19.1167" x2="51.6961" y2="68.1669" gradientUnits="userSpaceOnUse">
<stop offset="0.233042" stop-color="#222222"/>
<stop offset="1" stop-color="#6A15AF"/>
</linearGradient>
<clipPath id="clip0_83_124">
<rect x="10" y="20.1855" width="60" height="60" rx="4" transform="rotate(-4 10 20.1855)" fill="white"/>
</clipPath>
</defs>
</svg>
